<?xml version="1.0" encoding="UTF-8" standalone="no"?>
<svg width="100px" height="100px" viewBox="0 0 100 100" version="1.1" xmlns="http://www.w3.org/2000/svg" xmlns:xlink="http://www.w3.org/1999/xlink">
    <!-- Generator: Sketch 3.6.1 (26313) - http://www.bohemiancoding.com/sketch -->
    <title>logo</title>
    <desc>Created with Sketch.</desc>
    <defs></defs>
    <g id="Page-1" stroke="none" stroke-width="1" fill="none" fill-rule="evenodd">
        <g id="logo" fill="#D14735">
            <g transform="translate(12.000000, 30.000000)">
                <path d="M53.1484814,22.4508193 C53.1484814,22.4508193 52.7931962,21.1586224 54.1174412,18.6736284 C55.4416861,16.1886344 56.4752432,17.5470978 56.4752432,17.5470978 C56.4752432,17.5470978 57.6056962,18.8061614 56.3137499,20.6947569 C55.0218036,22.5833523 53.1484814,22.4508193 53.1484814,22.4508193 L53.1484814,22.4508193 Z M42.9744042,24.240015 C41.4563673,28.3154051 37.7743203,26.6587425 37.7743203,26.6587425 C37.7743203,26.6587425 37.3544378,25.2008793 38.5494881,21.1254892 C39.7445385,17.050099 42.5545217,18.6404952 42.5545217,18.6404952 C42.5545217,18.6404952 44.4924412,20.1646248 42.9744042,24.240015 L42.9744042,24.240015 Z M40.2290183,7.17638951 C40.2290183,7.17638951 42.522223,1.04673765 43.0713002,4.02873045 C43.6203774,7.01072325 38.2588002,15.8904351 38.2588002,15.8904351 C38.3233975,13.9024399 40.2290183,7.17638951 40.2290183,7.17638951 L40.2290183,7.17638951 Z M7.44575155,22.4508193 C7.54264753,18.5079621 10.0619428,16.785033 10.9340066,17.6464976 C11.8060703,18.5079621 11.4830838,20.3634243 9.83585222,21.5230882 C8.18862068,22.6827521 7.44575155,22.4508193 7.44575155,22.4508193 L7.44575155,22.4508193 Z M76.9202935,21.7965038 C76.7910989,20.4711737 75.6283472,20.9639314 75.6283472,20.9639314 C75.6283472,20.9639314 73.755025,22.4532049 72.1077935,22.2874061 C70.460562,22.1216073 70.9773405,18.3433561 70.9773405,18.3433561 C70.9773405,18.3433561 71.3326257,14.8810637 70.363666,14.5908164 C69.3947063,14.3005691 68.1996559,15.4931012 68.1996559,15.4931012 C68.1996559,15.4931012 66.7139177,17.1827645 66.0033472,19.336426 L65.8095552,19.4026925 C65.8095552,19.4026925 66.0356458,15.6253691 65.7772566,14.7639045 C65.5834646,14.3331722 63.8070385,14.3663055 63.5163505,15.1283703 C63.2256626,15.8904351 61.8045217,21.1917557 61.7076257,23.4116836 C61.7076257,23.4116836 58.9299412,25.8304111 56.5075418,26.2280102 C54.0851425,26.6256092 53.5037667,25.0683463 53.5037667,25.0683463 C53.5037667,25.0683463 60.0926928,23.1797509 59.8666022,17.7790306 C59.6405116,12.3783103 54.553473,14.3751852 53.9773942,14.8191708 C53.4205653,15.2484452 50.4471509,17.0885336 49.5798673,22.1828375 C49.5502818,22.3565883 49.4987331,23.1134844 49.4987331,23.1134844 C49.4987331,23.1134844 46.9471391,24.8695468 45.5259982,25.3334123 C45.5259982,25.3334123 49.4987331,18.4748289 44.6539344,15.3603031 C42.4576257,14.0018397 40.7134982,16.8512995 40.7134982,16.8512995 C40.7134982,16.8512995 47.2701257,9.36318423 45.8166861,3.03473285 C45.1244613,0.0211971957 43.6560351,-0.302713489 42.3075016,0.185008 C40.261317,1.0136044 39.4861492,2.23953477 39.4861492,2.23953477 C39.4861492,2.23953477 36.8376593,6.18239191 36.2239848,12.0469777 C35.6103103,17.9115636 34.7059479,25.0020798 34.7059479,25.0020798 C34.7059479,25.0020798 33.4463002,26.2611434 32.2835485,26.3274099 C31.1207969,26.3936764 31.6375754,22.7821518 31.6375754,22.7821518 C31.6375754,22.7821518 32.5419378,17.2820318 32.4773405,16.3543007 C32.4127432,15.4265696 32.3481458,14.9295708 31.2822901,14.5982383 C30.2164344,14.2669057 29.0536828,15.6585024 29.0536828,15.6585024 C29.0536828,15.6585024 25.9853103,20.4296908 25.726921,21.1586224 L25.5654277,21.4568217 L25.4039344,21.2580222 C25.4039344,21.2580222 27.5679445,14.7639045 25.5008304,14.6645048 C23.4337163,14.565105 22.0771727,16.9838325 22.0771727,16.9838325 C22.0771727,16.9838325 19.7193707,21.0260894 19.6224747,21.4899549 L19.4609814,21.2911554 C19.4609814,21.2911554 20.4299412,16.5862335 20.2361492,15.4265696 C20.0423573,14.2669057 18.9765016,14.4988385 18.9765016,14.4988385 C18.9765016,14.4988385 17.6199579,14.3331722 17.2646727,15.2277701 C16.9093875,16.1223679 15.6174412,22.0532202 15.4559479,23.9418157 C15.4559479,23.9418157 12.0644596,26.4268097 9.83585222,26.4599429 C7.60724484,26.4930762 7.83333545,25.0102968 7.83333545,25.0102968 C7.83333545,25.0102968 16.005025,22.1401619 13.7764177,16.4743756 C12.7750301,15.0165124 11.6122784,14.5588759 9.96504686,14.5920092 C8.31781531,14.6251425 6.32188746,15.6554541 4.99764249,18.7037134 C4.36562236,20.1585283 4.18358712,21.5374018 4.05439249,22.582292 L4.05439249,22.5818944 C4.05439249,22.5818944 2.57524316,22.8815516 1.80007538,22.2188865 C1.02490759,21.5562214 0.601795178,22.2188865 0.601795178,22.2188865 C0.601795178,22.2188865 -0.740278648,23.9334661 0.583966319,24.4635982 C1.90821129,24.9937302 3.96305189,25.2167833 3.96305189,25.2167833 L3.96163075,25.2167833 C4.15141766,26.1445144 4.7038539,27.7451156 6.3160737,29.0020587 C8.73847303,30.8906541 13.3890922,28.841031 13.3890922,28.841031 L15.2945838,27.7498868 C15.2945838,27.7498868 15.3590519,29.5466368 16.7478942,29.8083895 C18.1367365,30.0702747 18.7181123,29.8058714 21.1405116,23.7756193 C22.5616526,20.6942267 22.6585485,20.8601581 22.6585485,20.8601581 L22.8200418,20.8271573 C22.8200418,20.8271573 21.7218875,26.725009 22.14177,28.3154051 C22.5616526,29.9058013 24.4026761,29.7400025 24.4026761,29.7400025 C24.4026761,29.7400025 25.4039344,29.9137533 26.2114009,26.998027 C27.0188673,24.0823007 28.5692029,20.8431938 28.5692029,20.8431938 L28.7629948,20.8431938 C28.7629948,20.8431938 28.084723,26.8986272 29.1182801,28.8203559 C30.1518371,30.7420846 32.8326257,29.479045 32.8326257,29.479045 C32.8326257,29.479045 34.7059479,28.5161926 34.9966358,28.2179934 C34.9966358,28.2179934 37.2205922,30.1617225 40.356275,29.81051 C47.3670217,28.3950575 49.8604781,26.4851242 49.8604781,26.4851242 C49.8604781,26.4851242 51.065218,29.6160841 54.795713,29.9060663 C59.0591358,30.2373989 61.3846391,27.4872063 61.3846391,27.4872063 C61.3846391,27.4872063 61.3523405,29.276402 62.8380787,29.9059338 C64.323817,30.5354656 65.3250754,26.9731108 65.3250754,26.9731108 L67.812072,19.9154627 L68.0381626,19.9154627 C68.0381626,19.9154627 68.1673573,24.513033 70.6220552,25.2419645 C73.0767532,25.9708961 76.2743203,23.5481926 76.2743203,23.5481926 C76.2743203,23.5481926 77.0494881,23.1218339 76.9202935,21.7965038 L76.9202935,21.7965038 Z" id="Fill-4"></path>
                <path d="M66.2579267,28.3129477 L66.3508655,28.3129477 C66.4592941,28.3129477 66.5109267,28.3553583 66.5264165,28.4507821 C66.5522328,28.5515071 66.5677226,28.631027 66.593539,28.6628349 L66.8052328,28.6628349 C66.7845798,28.631027 66.76909,28.5780137 66.7432737,28.4454807 C66.7174573,28.3288517 66.6709879,28.2652358 66.5883757,28.2334279 L66.5883757,28.2228253 C66.691641,28.1910173 66.7639267,28.1167989 66.7639267,28.0213751 C66.7639267,27.936554 66.7277839,27.8676368 66.6813145,27.8305276 C66.6193553,27.7934183 66.5470696,27.7669117 66.3870084,27.7669117 C66.2476002,27.7669117 66.1391716,27.7775143 66.0617226,27.7934183 L66.0617226,28.6628349 L66.2579267,28.6628349 L66.2579267,28.3129477 Z M66.26309,27.92065 C66.283743,27.9153487 66.3198859,27.9100474 66.3715186,27.9100474 C66.4954369,27.9100474 66.5522328,27.9630606 66.5522328,28.0425804 C66.5522328,28.1327028 66.4644573,28.1698121 66.3560288,28.1698121 L66.26309,28.1698121 L66.26309,27.92065 Z M66.3921716,27.3375047 C65.9068247,27.3375047 65.5195798,27.7245011 65.5195798,28.2069213 C65.5195798,28.6999441 65.9068247,29.0869405 66.3921716,29.0869405 C66.8826818,29.0869405 67.2596002,28.6999441 67.2596002,28.2069213 C67.2596002,27.7245011 66.8826818,27.3375047 66.3921716,27.3375047 L66.3921716,27.3375047 Z M66.3921716,27.5124483 C66.76909,27.5124483 67.042743,27.8252262 67.042743,28.2122226 C67.042743,28.5939177 66.76909,28.9013943 66.3973349,28.9013943 C66.0152533,28.9013943 65.7364369,28.5939177 65.7364369,28.2069213 C65.7364369,27.8252262 66.0152533,27.5124483 66.3921716,27.5124483 L66.3921716,27.5124483 Z" id="®"></path>
            </g>
        </g>
    </g>
</svg>